<mxfile host="app.diagrams.net" modified="2023-04-24T08:57:52.258Z" agent="Mozilla/5.0 (Windows NT 10.0; Win64; x64) AppleWebKit/537.36 (KHTML, like Gecko) Chrome/112.0.0.0 Safari/537.36" version="21.2.1" etag="eA1xLzTUdairbkUrjU9z" type="github">
  <diagram name="Страница 1" id="I35N4RRB66doqcW7oqd9">
    <mxGraphModel>
      <root>
        <mxCell id="0" />
        <mxCell id="1" parent="0" />
      </root>
    </mxGraphModel>
  </diagram>
</mxfile>
